<?xml version="1.0" encoding="utf-8"?>
<!-- Generator: Adobe Illustrator 28.0.0, SVG Export Plug-In . SVG Version: 6.00 Build 0)  -->
<svg version="1.1" id="Layer_1" xmlns="http://www.w3.org/2000/svg" xmlns:xlink="http://www.w3.org/1999/xlink" x="0px" y="0px"
	 viewBox="0 0 1000 168.5" style="enable-background:new 0 0 1000 168.5;" xml:space="preserve">
<style type="text/css">
	.st0{fill:#FFFFFF;}
	.st1{fill:#2C389E;}
	.st2{fill:none;stroke:#2C389E;stroke-width:1.0805;stroke-miterlimit:10;}
	.st3{fill:#FFFFFF;stroke:#FFFFFF;stroke-width:0.6261;stroke-miterlimit:10;}
	.st4{fill:#CA2127;stroke:#FFFFFF;stroke-width:2.5045;stroke-miterlimit:10;}
	.st5{fill:#FFFDFD;}
	.st6{fill:#CA2127;stroke:#FFFFFF;stroke-width:0.8348;stroke-miterlimit:10;}
	.st7{fill:none;stroke:#FFFFFF;stroke-width:3.7568;stroke-miterlimit:10;}
	.st8{fill:#0580B0;stroke:#FFFFFF;stroke-width:1.2523;stroke-miterlimit:10;}
</style>
<g>
	<g>
		<path class="st0" d="M22.1,155.4c-5.2,0-9.5-4.2-9.5-9.5V22.6c0-5.2,4.2-9.5,9.5-9.5h955.8c5.2,0,9.5,4.2,9.5,9.5v123.4
			c0,5.2-4.2,9.5-9.5,9.5H22.1z"/>
		<path class="st1" d="M977.9,14.5c4.5,0,8.1,3.6,8.1,8.1v123.4c0,4.5-3.6,8.1-8.1,8.1H22.1c-4.5,0-8.1-3.6-8.1-8.1V22.6
			c0-4.5,3.6-8.1,8.1-8.1H977.9 M977.9,11.8H22.1c-5.9,0-10.8,4.9-10.8,10.8v123.4c0,5.9,4.9,10.8,10.8,10.8h955.8
			c5.9,0,10.8-4.9,10.8-10.8V22.6C988.7,16.6,983.8,11.8,977.9,11.8L977.9,11.8z"/>
	</g>
	<path class="st2" d="M977.9,156.8H22.1c-5.9,0-10.8-4.9-10.8-10.8V22.6c0-5.9,4.9-10.8,10.8-10.8h955.8c5.9,0,10.8,4.9,10.8,10.8
		v123.4C988.7,151.9,983.8,156.8,977.9,156.8z"/>
	<g>
		<rect x="145.6" y="79.3" class="st3" width="4.8" height="4.8"/>
		<rect x="123.1" y="55.3" class="st0" width="12.3" height="28.8"/>
		<rect x="159.4" y="57.5" class="st0" width="12.3" height="28.8"/>
		<rect x="201.9" y="70.3" class="st0" width="19.4" height="13"/>
		<rect x="336.4" y="67.5" class="st0" width="9.4" height="6.1"/>
		<rect x="349.3" y="72.7" class="st0" width="7.1" height="7.1"/>
		<path class="st0" d="M295.2,84.5l-24.5-0.4V58.3l30.2,1.1c0,0-0.6,5.7-1.3,10.9C299.2,73.2,295.2,84.5,295.2,84.5z"/>
		<rect x="473.1" y="64.1" class="st0" width="7.2" height="22.3"/>
		<path class="st4" d="M119.4,69.7c-0.2,20.3-16.8,37-36.8,36.8C62.4,106.3,45.9,89.8,46,69.6C46.2,49.4,62.5,33,82.6,32.9
			C103,32.7,119.7,49.3,119.4,69.7z"/>
		<g>
			<g>
				<polygon class="st5" points="97.8,64 88.4,64 88.4,54.5 77.6,54.5 77.6,64 68.2,64 68.2,74.6 77.6,74.6 77.6,84.1 88.4,84.1 
					88.4,74.6 97.8,74.6 				"/>
			</g>
		</g>
		<path class="st0" d="M83,91.1c-11.9,0-21.5-9.7-21.5-21.5S71.2,48,83,48s21.5,9.7,21.5,21.5S94.9,91.1,83,91.1z M83,50.2
			c-10.7,0-19.4,8.7-19.4,19.4S72.4,88.9,83,88.9s19.4-8.7,19.4-19.4S93.7,50.2,83,50.2z"/>
		<path class="st6" d="M71,112.8h6.5L68.9,135h-7.8l1.1-12h-0.4l-4.2,12h-7.8l1-22.2h6.5l-1.2,11.4h0.4l3.8-11.4h7.9l-1.2,11.4h0.4
			L71,112.8L71,112.8z M85,135l0.2-3.4h-4.6l-1.3,3.4h-7.1l9.9-22.2h9.8l0.3,22.2H85L85,135z M85.7,118.5l-3.2,7.6h3.3L85.7,118.5
			L85.7,118.5z M108.4,129.3l-1.2,5.8H92.8l4.8-22.2h7.6l-3.6,16.4H108.4L108.4,129.3z M124.9,123.1l2.4,11.9h-7.9l-1.2-11.8
			l5.5-10.4h7.8L124.9,123.1L124.9,123.1z M108.1,135l4.8-22.2h7.4l-4.8,22.2H108.1L108.1,135z M136.1,130.1h-7.8l1.1-5.1h7.8
			L136.1,130.1L136.1,130.1z M144.2,135h-7.6l4.8-22.2h7.6L144.2,135L144.2,135z M164.6,135H156l-1.4-12.5L152,135h-5.8l4.8-22.2
			h8.7l1.3,12.8l2.6-12.8h5.7L164.6,135L164.6,135z M194.7,120.4c0,0.2-0.1,0.5-0.1,0.8c-0.1,0.3-0.1,0.6-0.2,0.9h-6.9l0.1-0.5
			c0.2-0.8,0.1-1.3-0.1-1.8c-0.2-0.4-0.5-0.6-1-0.6c-0.5,0-0.9,0.3-1.4,0.9c-0.4,0.6-0.9,1.7-1.3,3.2l-0.4,1.4
			c-0.1,0.4-0.2,0.7-0.2,1c-0.1,0.3-0.1,0.7-0.1,1.3c0,0.5,0,1,0.1,1.4c0.1,0.4,0.2,0.6,0.4,0.8c0.2,0.2,0.4,0.2,0.6,0.2
			c0.3,0,0.6-0.1,0.9-0.3c0.3-0.2,0.5-0.4,0.7-0.7c0.2-0.3,0.3-0.6,0.5-1c0.1-0.4,0.3-0.9,0.5-1.7l0.1-0.4h7c-0.1,0.5-0.2,0.8-0.2,1
			c-0.1,0.3-0.1,0.5-0.2,0.6c-0.8,2.6-1.9,4.6-3.3,5.9c-1.4,1.3-3.3,2.2-5.7,2.5c-0.6,0.1-1,0.1-1.2,0.1c-0.2,0-0.4,0-0.5,0
			c-0.4,0-0.7,0-0.9-0.1c-0.2,0-0.4-0.1-0.5-0.1c-2.4-0.4-4.1-1.6-5-3.5c-1-1.9-1.1-4.4-0.4-7.5c0.3-1.3,0.7-2.5,1.2-3.9
			c0.9-2.5,2.2-4.5,3.9-5.9c1.6-1.5,3.5-2.3,5.6-2.5c0.5-0.1,1-0.1,1.5-0.1c2.5,0,4.3,0.7,5.4,2.2
			C194.4,115.7,194.9,117.8,194.7,120.4L194.7,120.4z M208.8,129.3l-1.2,5.8h-14.3l4.8-22.2h7.6l-3.6,16.4H208.8L208.8,129.3z
			 M216.2,135h-7.6l4.8-22.2h7.6L216.2,135L216.2,135z M236.5,135h-8.6l-1.4-12.5L224,135h-5.8l4.8-22.2h8.7l1.3,12.8l2.6-12.8h5.7
			L236.5,135L236.5,135z M246.2,135h-7.6l4.8-22.2h7.6L246.2,135L246.2,135z M268.9,120.4c0,0.2-0.1,0.5-0.1,0.8
			c-0.1,0.3-0.1,0.6-0.2,0.9h-6.9l0.1-0.5c0.2-0.8,0.1-1.3-0.1-1.8c-0.2-0.4-0.5-0.6-1-0.6c-0.5,0-0.9,0.3-1.4,0.9
			c-0.4,0.6-0.9,1.7-1.3,3.2l-0.4,1.4c-0.1,0.4-0.2,0.7-0.2,1c-0.1,0.3-0.1,0.7-0.1,1.3c0,0.5,0,1,0.1,1.4c0.1,0.4,0.2,0.6,0.4,0.8
			c0.2,0.2,0.4,0.2,0.6,0.2c0.3,0,0.6-0.1,0.9-0.3c0.3-0.2,0.5-0.4,0.7-0.7c0.2-0.3,0.3-0.6,0.5-1c0.1-0.4,0.3-0.9,0.5-1.7l0.1-0.4
			h7c-0.1,0.5-0.2,0.8-0.2,1c-0.1,0.3-0.1,0.5-0.2,0.6c-0.8,2.6-1.9,4.6-3.3,5.9c-1.4,1.3-3.3,2.2-5.7,2.5c-0.6,0.1-1,0.1-1.2,0.1
			c-0.2,0-0.4,0-0.5,0c-0.4,0-0.7,0-0.9-0.1c-0.2,0-0.4-0.1-0.5-0.1c-2.4-0.4-4-1.6-5-3.5c-1-1.9-1.1-4.4-0.4-7.5
			c0.3-1.3,0.7-2.5,1.2-3.9c0.9-2.5,2.2-4.5,3.9-5.9c1.6-1.5,3.5-2.3,5.6-2.5c0.5-0.1,1-0.1,1.5-0.1c2.5,0,4.3,0.7,5.4,2.2
			C268.7,115.7,269.1,117.8,268.9,120.4L268.9,120.4z M291.4,120.8c-0.5,0.7-1.3,1.4-2.4,2.2l-0.8,0.5l0.9,2
			c0.2-0.2,0.3-0.4,0.4-0.7c0.1-0.3,0.2-0.5,0.2-0.6h5.1c-0.4,1.2-0.9,2.3-1.6,3.4c-0.7,1.1-1.4,2-2.2,2.8l2,4.7h-6.9l-0.4-0.9
			c-0.5,0.4-1.1,0.7-1.7,0.9c-0.6,0.2-1.3,0.4-2.1,0.5h-1.1c-2,0-3.4-0.6-4.4-1.9c-0.9-1.3-1.2-2.9-0.8-4.8c0.2-0.7,0.4-1.5,0.8-2.3
			c0.4-0.8,0.9-1.5,1.5-2.2c0.6-0.7,1.4-1.3,2.3-1.8l0.6-0.3l-0.1-0.2l-0.1-0.2l-0.2-0.6c-0.2-0.9-0.2-1.9,0-3
			c0.3-1.3,0.9-2.5,2-3.5c1-1,2.3-1.7,3.8-2c0.4-0.1,0.7-0.1,0.9-0.1c0.2,0,0.3,0,0.4,0c2,0,3.5,0.5,4.3,1.5c0.8,1,1,2.4,0.6,4.2
			C292.3,119.2,291.9,120,291.4,120.8L291.4,120.8z M282.6,126.5l-0.3,0.2c-0.7,0.5-1.1,1.1-1.3,1.8c-0.1,0.4-0.1,0.8,0.1,1.2
			c0.1,0.4,0.3,0.6,0.5,0.8c0.2,0.1,0.5,0.2,1,0.2c0.6,0.1,1.1-0.1,1.6-0.4L282.6,126.5L282.6,126.5z M288,117.1
			c-0.2-0.4-0.4-0.6-0.8-0.6c-0.2,0-0.5,0.1-0.8,0.4c-0.3,0.2-0.5,0.6-0.6,1.1c-0.1,0.3-0.1,0.6,0,1c0.1,0.3,0.2,0.6,0.4,0.9
			l0.2,0.2l0.3-0.2c0.8-0.5,1.2-1.1,1.4-1.8C288.1,117.7,288.1,117.4,288,117.1L288,117.1z M311.5,129.2c0.1,0.1,0.3,0.1,0.4,0.1
			c0.3,0,0.6-0.1,0.9-0.3c0.5-0.3,0.8-0.9,1-1.6l0.1-0.6l0-0.2l0.1-0.5l2.9-13.3h7.6l-3.2,14.8c-0.6,2.5-1.6,4.5-3,5.7
			c-1.6,1.4-3.8,2.1-6.7,2.1h-2.1c-2.8,0-4.8-0.7-5.8-2.1c-0.9-1.3-1.1-3.2-0.5-5.7l3.2-14.8h7.7l-2.9,13.3l-0.1,0.5l-0.1,0.2
			l-0.1,0.5c-0.2,0.7-0.1,1.2,0.3,1.6C311.3,129.1,311.4,129.2,311.5,129.2L311.5,129.2z M342.2,118.9c-0.5,2.3-1.8,3.9-3.9,4.7
			l-0.5,0.2c0.1,0,0.3,0,0.4,0.1c0.7,0.2,1.2,0.6,1.4,1.1c0.3,0.5,0.4,1.1,0.4,2l0,0.7l-0.1,1.1l-0.6,4.7c0,0.1,0,0.3,0,0.5
			c0,0.2,0,0.6,0,1.1H332l0-0.9c0-1.2,0.1-2.2,0.2-3l0.2-1.2l0.1-0.7c0.1-0.8,0.1-1.3-0.1-1.6c-0.2-0.3-0.5-0.4-1-0.4h-0.3h-0.4
			L329,135h-7.3l4.8-22.2h9.8h0.7c2.4,0,4,0.4,4.8,1.3C342.5,115.1,342.7,116.6,342.2,118.9L342.2,118.9z M334.3,118H334h-0.1h-0.6
			h-0.7l-0.8,3.9h0.9h0.3c0.6,0,1-0.2,1.4-0.5c0.4-0.3,0.6-0.8,0.8-1.3C335.4,118.8,335.1,118.1,334.3,118L334.3,118z M362.3,119.7
			h-7.5l0-0.4c0-0.7-0.4-1-1-1c-0.3,0-0.6,0.1-0.9,0.2c-0.5,0.2-1,0.7-1.4,1.4c-0.5,0.8-0.8,1.9-1.2,3.4c0,0.2-0.1,0.4-0.1,0.7
			c0,0.2-0.1,0.4-0.1,0.7c-0.4,2-0.5,3.3-0.2,4.2c0.3,0.8,1,1.3,2,1.3c0.3,0,0.6,0,1-0.1l0.4-0.1h0.1l0.6-2.7h-2.4l1.1-4.9h9.4
			l-2.6,11.9l-2.4,0.6c-0.8,0.2-1.7,0.4-2.5,0.5c-0.9,0.1-1.6,0.2-2.2,0.2c-4.3,0-7.3-0.9-8.8-2.6c-1.5-1.8-1.9-4.7-1-8.8
			c0.8-3.5,2.1-6.3,3.9-8.2c1.8-2,4.1-3.1,6.8-3.4c0.9-0.1,1.7-0.2,2.3-0.2c2.7,0,4.7,0.7,5.8,2.1
			C362.5,115.8,362.8,117.5,362.3,119.7L362.3,119.7z M379,118.6h-6.9l-0.5,2.2h6.6l-1.3,6h-6.6l-0.5,2.4h6.9l-1.2,5.8h-14.2
			l4.8-22.2h14.2L379,118.6L379,118.6z M395.4,135h-8.6l-1.4-12.5l-2.5,12.5h-5.8l4.8-22.2h8.7l1.3,12.8l2.6-12.8h5.7L395.4,135
			L395.4,135z M416.4,118.6H412l-3.6,16.4h-7.6l3.6-16.4H400l1.2-5.8h16.4L416.4,118.6L416.4,118.6z M441.9,120.4
			c0,0.2-0.1,0.5-0.1,0.8c-0.1,0.3-0.1,0.6-0.2,0.9h-6.9l0.1-0.5c0.2-0.8,0.1-1.3-0.1-1.8c-0.2-0.4-0.5-0.6-1-0.6
			c-0.5,0-0.9,0.3-1.4,0.9c-0.4,0.6-0.9,1.7-1.3,3.2l-0.4,1.4c-0.1,0.4-0.2,0.7-0.2,1c-0.1,0.3-0.1,0.7-0.1,1.3c0,0.5,0,1,0.1,1.4
			c0.1,0.4,0.2,0.6,0.4,0.8c0.2,0.2,0.4,0.2,0.6,0.2c0.3,0,0.6-0.1,0.9-0.3c0.3-0.2,0.5-0.4,0.7-0.7c0.2-0.3,0.3-0.6,0.5-1
			c0.1-0.4,0.3-0.9,0.5-1.7l0.1-0.4h7c-0.1,0.5-0.2,0.8-0.2,1c-0.1,0.3-0.1,0.5-0.2,0.6c-0.8,2.6-1.9,4.6-3.3,5.9
			c-1.4,1.3-3.3,2.2-5.7,2.5c-0.6,0.1-1,0.1-1.2,0.1c-0.2,0-0.4,0-0.5,0c-0.4,0-0.7,0-0.9-0.1c-0.2,0-0.4-0.1-0.5-0.1
			c-2.4-0.4-4-1.6-5-3.5c-1-1.9-1.1-4.4-0.4-7.5c0.3-1.3,0.7-2.5,1.2-3.9c0.9-2.5,2.2-4.5,3.9-5.9c1.6-1.5,3.5-2.3,5.6-2.5
			c0.5-0.1,1-0.1,1.5-0.1c2.5,0,4.3,0.7,5.4,2.2C441.6,115.7,442.1,117.8,441.9,120.4L441.9,120.4z M451.9,135l0.2-3.4h-4.6
			l-1.3,3.4H439l9.9-22.2h9.8L459,135H451.9L451.9,135z M452.6,118.5l-3.2,7.6h3.3L452.6,118.5L452.6,118.5z M480.1,118.9
			c-0.5,2.3-1.8,3.9-3.9,4.7l-0.5,0.2c0.1,0,0.3,0,0.4,0.1c0.7,0.2,1.2,0.6,1.4,1.1c0.3,0.5,0.4,1.1,0.4,2l0,0.7l-0.1,1.1l-0.6,4.7
			c0,0.1,0,0.3,0,0.5c0,0.2,0,0.6,0,1.1h-7.4l0-0.9c0-1.2,0.1-2.2,0.2-3l0.2-1.2l0.1-0.7c0.1-0.8,0.1-1.3-0.1-1.6
			c-0.2-0.3-0.5-0.4-1-0.4H469h-0.4l-1.7,7.9h-7.3l4.8-22.2h9.8h0.7c2.4,0,4,0.4,4.8,1.3C480.4,115.1,480.5,116.6,480.1,118.9
			L480.1,118.9z M472.2,118h-0.3h-0.1h-0.6h-0.7l-0.8,3.9h0.9h0.3c0.6,0,1-0.2,1.4-0.5s0.6-0.8,0.8-1.3
			C473.3,118.8,473,118.1,472.2,118L472.2,118z M496.2,118.6h-6.9l-0.5,2.2h6.6l-1.3,6h-6.6l-0.5,2.4h6.9l-1.2,5.8h-14.2l4.8-22.2
			h14.2L496.2,118.6L496.2,118.6z"/>
		<path class="st7" d="M149.7,66.6c-0.2,1.7-0.5,3.2-0.8,4.6c-0.6,2.9-1.3,5.4-2.2,7.4c-0.9,2-2.2,4-3.8,6l-1.1,1.2
			c0.6-0.4,1.2-0.6,1.7-0.8c0.5-0.2,1.1-0.3,1.7-0.3h1.6l-2.1,10.3H132c-1,0-2.6,0.1-4.8,0.3c-0.7,0-1.8,0.1-3.1,0.3
			c-1.3,0-2.5-0.1-3.8-0.3c-1.2-0.2-2.5-0.6-3.7-1.2c-3.5-1.7-6-4.6-7.2-8.6c-1.3-4-1.3-8.9-0.2-14.6c1.5-7.2,4.2-13,8.1-17.5
			c4.5-5,10-7.5,16.5-7.5c7.3,0,12.1,2.1,14.4,6.3C150.1,55.2,150.5,60,149.7,66.6L149.7,66.6z M133.9,62.9
			c-0.2-2.8-1.1-4.1-2.6-4.1s-2.9,1.5-4.1,4.5c-0.8,2-1.6,4.9-2.4,8.7c-0.6,2.9-0.8,5.4-0.6,7.3c0.2,2.5,1.1,3.7,2.5,3.7
			c1.3,0,2.5-1.4,3.9-4.1c1.2-2.4,2-5,2.6-8C133.8,67.8,134.1,65.1,133.9,62.9L133.9,62.9z M161.5,85.3c0.2,0.1,0.4,0.1,0.6,0.1
			c0.4,0,0.8-0.2,1.3-0.5c0.7-0.6,1.2-1.4,1.4-2.5l0.2-0.9l0.1-0.3l0.1-0.7l4.2-21h11.2L176,82.8c-0.8,4-2.3,7-4.5,9
			c-2.3,2.2-5.6,3.3-9.8,3.3h-3.1c-4.2,0-7-1.1-8.5-3.3c-1.4-2-1.6-5-0.8-9l4.7-23.4h11.3l-4.2,21l-0.1,0.7l-0.1,0.4l-0.2,0.8
			c-0.2,1.1-0.1,1.9,0.4,2.5C161.2,85,161.4,85.2,161.5,85.3L161.5,85.3z M187.8,94.4h-11.2l7-35h11.2L187.8,94.4L187.8,94.4z
			 M221.2,71.3c0,0.4-0.1,0.8-0.2,1.3c-0.1,0.5-0.2,1-0.2,1.4h-10.2l0.2-0.8c0.2-1.2,0.2-2.1-0.1-2.8c-0.3-0.7-0.8-1-1.4-1
			c-0.7,0-1.4,0.5-2,1.4c-0.6,1-1.3,2.6-1.9,5.1l-0.5,2.3c-0.1,0.6-0.2,1.2-0.3,1.7c-0.1,0.5-0.1,1.2-0.2,2c0,0.9,0,1.6,0.1,2.1
			c0.1,0.6,0.3,1,0.5,1.2c0.2,0.2,0.6,0.4,0.9,0.4c0.4,0,0.8-0.1,1.3-0.4c0.4-0.3,0.8-0.7,1-1.1c0.3-0.5,0.5-1,0.7-1.6
			c0.2-0.6,0.4-1.5,0.7-2.7l0.1-0.6h10.2c-0.1,0.7-0.3,1.2-0.3,1.6c-0.1,0.4-0.2,0.7-0.2,1c-1.2,4.2-2.8,7.3-4.8,9.4
			c-2,2.1-4.8,3.4-8.3,4c-0.9,0.1-1.5,0.2-1.8,0.2c-0.3,0-0.6,0-0.8,0c-0.6,0-1,0-1.3-0.1c-0.3-0.1-0.6-0.1-0.7-0.1
			c-3.5-0.7-5.9-2.5-7.3-5.5c-1.4-3-1.6-7-0.6-11.9c0.4-2,1-4,1.7-6.1c1.4-3.9,3.3-7,5.7-9.3c2.4-2.3,5.1-3.6,8.2-4
			c0.8-0.1,1.5-0.1,2.2-0.1c3.6,0,6.2,1.1,7.9,3.4C220.8,64,221.5,67.2,221.2,71.3L221.2,71.3z M243.6,75.7l3.5,18.8h-11.7
			l-1.8-18.6l8-16.4h11.5L243.6,75.7L243.6,75.7z M219,94.4l7-35H237l-7,35H219L219,94.4z M298.9,62.7c0,0.5-0.1,1.1-0.2,1.8
			c-0.1,0.7-0.2,1.3-0.3,1.9h-14l0.2-1.1c0.3-1.6,0.3-2.9-0.2-3.8c-0.4-0.9-1.1-1.4-1.9-1.4c-1,0-1.9,0.7-2.7,2
			c-0.8,1.3-1.7,3.6-2.7,7l-0.7,3.1c-0.2,0.8-0.3,1.6-0.4,2.3c-0.1,0.7-0.2,1.6-0.2,2.8c-0.1,1.2,0,2.2,0.1,2.9
			c0.1,0.8,0.4,1.3,0.7,1.7c0.3,0.3,0.8,0.5,1.3,0.5c0.5,0,1.1-0.2,1.7-0.6c0.6-0.4,1.1-0.9,1.4-1.6c0.3-0.6,0.7-1.4,0.9-2.2
			c0.3-0.8,0.6-2,0.9-3.7l0.1-0.8h14c-0.2,1-0.3,1.7-0.4,2.2c-0.1,0.6-0.2,1-0.3,1.3c-1.6,5.7-3.8,10-6.6,12.9
			c-2.8,2.8-6.6,4.7-11.4,5.5c-1.2,0.2-2,0.3-2.4,0.3c-0.4,0-0.8,0-1.1,0c-0.8,0-1.4,0-1.8-0.1c-0.4-0.1-0.8-0.1-1-0.1
			c-4.8-0.9-8.2-3.5-10.1-7.6c-1.9-4.1-2.2-9.6-0.9-16.3c0.5-2.7,1.3-5.5,2.3-8.3c1.9-5.4,4.5-9.7,7.8-12.8c3.3-3.2,7-5,11.2-5.5
			c1-0.1,2-0.2,3-0.2c4.9,0,8.6,1.6,10.9,4.7C298.4,52.6,299.4,57,298.9,62.7L298.9,62.7z M312.2,94.4l0.2-5.4h-6.7l-1.9,5.4h-10.4
			l14.5-35h14.4l0.4,35H312.2L312.2,94.4z M313.2,68.4l-4.7,12h4.8L313.2,68.4L313.2,68.4z M353.6,68.9c-0.7,3.7-2.7,6.2-5.7,7.5
			l-0.8,0.3c0.2,0,0.4,0.1,0.6,0.2c1,0.4,1.7,0.9,2.1,1.7c0.4,0.7,0.7,1.8,0.7,3.1l0,1.2l-0.2,1.7l-0.8,7.3c0,0.2,0,0.5,0,0.9
			c0,0.3,0,0.9,0,1.7h-10.9l0-1.5c0.1-1.9,0.2-3.5,0.3-4.8l0.3-1.8l0.2-1.1c0.1-1.3,0.1-2.1-0.1-2.6c-0.2-0.4-0.7-0.7-1.5-0.7h-0.4
			h-0.6l-2.5,12.4h-10.7l7-35H345h1c3.6,0,5.9,0.7,7,2.1C354.1,62.9,354.3,65.4,353.6,68.9L353.6,68.9z M342,67.5h-0.4h-0.2h-0.9
			h-1.1l-1.2,6.1h1.3h0.4c0.8,0,1.5-0.3,2.1-0.8c0.6-0.5,0.9-1.2,1.1-2C343.6,68.8,343.2,67.7,342,67.5L342,67.5z M377.2,68.5h-10.1
			l-0.7,3.5h9.7l-1.9,9.4h-9.7l-0.8,3.8h10.2l-1.8,9.1h-20.8l7-35H379L377.2,68.5L377.2,68.5z M442,46.4l-9.7,48.1h-12l6.4-29.8H426
			l-11.7,29.8h-12.5l0.4-29.8h-0.7l-5.7,29.8h-12l9.7-48.1h20.2l-1.4,27l9.5-27H442L442,46.4z M461.8,68.5h-10.1l-0.7,3.5h9.7
			l-1.9,9.4h-9.7l-0.8,3.8h10.2l-1.8,9.1h-20.8l7-35h20.8L461.8,68.5L461.8,68.5z M490.8,73.1c-0.1,1.2-0.3,2.4-0.5,3.6
			c-0.1,0.4-0.1,0.6-0.2,0.8c0,0.2-0.1,0.5-0.2,0.8c-0.1,0.3-0.1,0.5-0.2,0.6c-1.6,5.6-3.8,9.6-6.7,11.9c-2.9,2.4-7.1,3.5-12.6,3.5
			H459l7-35h11.8h2.4c4.1,0,7,1.1,8.6,3.3C490.6,64.9,491.2,68.4,490.8,73.1L490.8,73.1z M479.3,69.4c-0.4-1.4-1.2-2.1-2.5-2.1h-0.6
			h-0.8l-3.8,19.1h0.6c1.4,0,2.6-0.5,3.5-1.4c0.9-0.9,1.7-2.5,2.4-4.7l0.4-1.5l0.2-1l0.3-1.6C479.6,73.1,479.7,70.8,479.3,69.4
			L479.3,69.4z"/>
		<path class="st8" d="M149.7,66.6c-0.2,1.7-0.5,3.2-0.8,4.6c-0.6,2.9-1.3,5.4-2.2,7.4c-0.9,2-2.2,4-3.8,6l-1.1,1.2
			c0.6-0.4,1.2-0.6,1.7-0.8c0.5-0.2,1.1-0.3,1.7-0.3h1.6l-2.1,10.3H132c-1,0-2.6,0.1-4.8,0.3c-0.7,0-1.8,0.1-3.1,0.3
			c-1.3,0-2.5-0.1-3.8-0.3c-1.2-0.2-2.5-0.6-3.7-1.2c-3.5-1.7-6-4.6-7.2-8.6c-1.3-4-1.3-8.9-0.2-14.6c1.5-7.2,4.2-13,8.1-17.5
			c4.5-5,10-7.5,16.5-7.5c7.3,0,12.1,2.1,14.4,6.3C150.1,55.2,150.5,60.1,149.7,66.6L149.7,66.6z M133.9,62.9
			c-0.2-2.8-1.1-4.1-2.6-4.1s-2.9,1.5-4.1,4.5c-0.8,2-1.6,4.9-2.4,8.7c-0.6,2.9-0.8,5.4-0.6,7.3c0.2,2.5,1.1,3.7,2.5,3.7
			c1.3,0,2.5-1.4,3.9-4.1c1.2-2.4,2-5,2.6-8C133.8,67.8,134.1,65.1,133.9,62.9L133.9,62.9z M161.5,85.3c0.2,0.1,0.4,0.1,0.6,0.1
			c0.4,0,0.8-0.2,1.3-0.5c0.7-0.6,1.2-1.4,1.4-2.5l0.2-0.9l0.1-0.3l0.1-0.7l4.2-21h11.2L176,82.9c-0.8,4-2.3,7-4.5,9
			c-2.3,2.2-5.6,3.3-9.8,3.3h-3.1c-4.2,0-7-1.1-8.5-3.3c-1.4-2-1.6-5-0.8-9l4.7-23.4h11.3l-4.2,21l-0.1,0.7l-0.1,0.4l-0.2,0.8
			c-0.2,1.1-0.1,1.9,0.4,2.5C161.2,85.1,161.4,85.2,161.5,85.3L161.5,85.3z M187.8,94.4h-11.2l7-35h11.2L187.8,94.4L187.8,94.4z
			 M221.2,71.4c0,0.4-0.1,0.8-0.2,1.3c-0.1,0.5-0.2,1-0.2,1.4h-10.2l0.2-0.8c0.2-1.2,0.2-2.1-0.1-2.8c-0.3-0.7-0.8-1-1.4-1
			c-0.7,0-1.4,0.5-2,1.4c-0.6,1-1.3,2.6-1.9,5.1l-0.5,2.3c-0.1,0.6-0.2,1.2-0.3,1.7c-0.1,0.5-0.1,1.2-0.2,2c0,0.9,0,1.6,0.1,2.1
			c0.1,0.6,0.3,1,0.5,1.2c0.2,0.2,0.6,0.4,0.9,0.4c0.4,0,0.8-0.1,1.3-0.4c0.4-0.3,0.8-0.7,1-1.1c0.3-0.5,0.5-1,0.7-1.6
			c0.2-0.6,0.4-1.5,0.7-2.7l0.1-0.6h10.2c-0.1,0.7-0.3,1.2-0.3,1.6c-0.1,0.4-0.2,0.7-0.2,1c-1.2,4.2-2.8,7.3-4.8,9.4
			c-2,2.1-4.8,3.4-8.3,4c-0.9,0.1-1.5,0.2-1.8,0.2c-0.3,0-0.6,0-0.8,0c-0.6,0-1,0-1.3-0.1c-0.3-0.1-0.6-0.1-0.7-0.1
			c-3.5-0.7-5.9-2.5-7.3-5.5c-1.4-3-1.6-7-0.6-11.9c0.4-2,1-4,1.7-6.1c1.4-3.9,3.3-7,5.7-9.3c2.4-2.3,5.1-3.6,8.2-4
			c0.8-0.1,1.5-0.1,2.2-0.1c3.6,0,6.2,1.1,7.9,3.4C220.8,64,221.5,67.2,221.2,71.4L221.2,71.4z M243.6,75.7l3.5,18.8h-11.7
			l-1.8-18.6l8-16.4h11.5L243.6,75.7L243.6,75.7z M219,94.4l7-35H237l-7,35H219L219,94.4z M298.9,62.7c0,0.5-0.1,1.1-0.2,1.8
			c-0.1,0.7-0.2,1.3-0.3,1.9h-14l0.2-1.1c0.3-1.6,0.3-2.9-0.2-3.8c-0.4-0.9-1.1-1.4-1.9-1.4c-1,0-1.9,0.7-2.7,2
			c-0.8,1.3-1.7,3.6-2.7,7l-0.7,3.1c-0.2,0.8-0.3,1.6-0.4,2.3c-0.1,0.7-0.2,1.6-0.2,2.8c-0.1,1.2,0,2.2,0.1,2.9
			c0.1,0.8,0.4,1.3,0.7,1.7c0.3,0.3,0.8,0.5,1.3,0.5c0.5,0,1.1-0.2,1.7-0.6c0.6-0.4,1.1-0.9,1.4-1.6c0.3-0.6,0.7-1.4,0.9-2.2
			c0.3-0.8,0.6-2,0.9-3.7l0.1-0.8h14c-0.2,1-0.3,1.7-0.4,2.2c-0.1,0.6-0.2,1-0.3,1.3c-1.6,5.7-3.8,10-6.6,12.9
			c-2.8,2.8-6.6,4.7-11.4,5.5c-1.2,0.2-2,0.3-2.4,0.3c-0.4,0-0.8,0-1.1,0c-0.8,0-1.4,0-1.8-0.1c-0.4-0.1-0.8-0.1-1-0.1
			c-4.8-0.9-8.2-3.5-10.1-7.6c-1.9-4.1-2.2-9.6-0.9-16.3c0.5-2.7,1.3-5.5,2.3-8.3c1.9-5.4,4.5-9.7,7.8-12.8c3.3-3.2,7-5,11.2-5.5
			c1-0.1,2-0.2,3-0.2c4.9,0,8.6,1.6,10.9,4.7C298.4,52.6,299.4,57,298.9,62.7L298.9,62.7z M312.2,94.4l0.2-5.4h-6.7l-1.9,5.4h-10.4
			l14.5-35h14.4l0.4,35H312.2L312.2,94.4z M313.2,68.5l-4.7,12h4.8L313.2,68.5L313.2,68.5z M353.6,69c-0.7,3.7-2.7,6.2-5.7,7.5
			l-0.8,0.3c0.2,0,0.4,0.1,0.6,0.2c1,0.4,1.7,0.9,2.1,1.7c0.4,0.7,0.7,1.8,0.7,3.1l0,1.2l-0.2,1.7l-0.8,7.3c0,0.2,0,0.5,0,0.9
			c0,0.3,0,0.9,0,1.7h-10.9l0-1.5c0.1-1.9,0.2-3.5,0.3-4.8l0.3-1.8l0.2-1.1c0.1-1.3,0.1-2.1-0.1-2.6c-0.2-0.4-0.7-0.7-1.5-0.7h-0.4
			h-0.6l-2.5,12.4h-10.7l7-35H345h1c3.6,0,5.9,0.7,7,2.1C354.1,63,354.3,65.5,353.6,69L353.6,69z M342,67.5h-0.4h-0.2h-0.9h-1.1
			l-1.2,6.1h1.3h0.4c0.8,0,1.5-0.3,2.1-0.8c0.6-0.5,0.9-1.2,1.1-2C343.6,68.8,343.2,67.7,342,67.5L342,67.5z M377.2,68.5h-10.1
			l-0.7,3.5h9.7l-1.9,9.4h-9.7l-0.8,3.8h10.2l-1.8,9.1h-20.8l7-35H379L377.2,68.5L377.2,68.5z M442,46.4l-9.7,48.1h-12l6.4-29.8H426
			l-11.7,29.8h-12.5l0.4-29.8h-0.7l-5.7,29.8h-12l9.7-48.1h20.2l-1.4,27l9.5-27H442L442,46.4z M461.8,68.5h-10.1l-0.7,3.5h9.7
			l-1.9,9.4h-9.7l-0.8,3.8h10.2l-1.8,9.1h-20.8l7-35h20.8L461.8,68.5L461.8,68.5z M490.8,73.2c-0.1,1.2-0.3,2.4-0.5,3.6
			c-0.1,0.4-0.1,0.6-0.2,0.8c0,0.2-0.1,0.5-0.2,0.8c-0.1,0.3-0.1,0.5-0.2,0.6c-1.6,5.6-3.8,9.6-6.7,11.9c-2.9,2.4-7.1,3.5-12.6,3.5
			H459l7-35h11.8h2.4c4.1,0,7,1.1,8.6,3.3C490.6,65,491.2,68.4,490.8,73.2L490.8,73.2z M479.3,69.4c-0.4-1.4-1.2-2.1-2.5-2.1h-0.6
			h-0.8l-3.8,19.1h0.6c1.4,0,2.6-0.5,3.5-1.4c0.9-0.9,1.7-2.5,2.4-4.7l0.4-1.5l0.2-1l0.3-1.6C479.6,73.2,479.7,70.9,479.3,69.4
			L479.3,69.4z"/>
	</g>
	<path class="st1" d="M977.9,156.8H534.5l56.7-145h386.7c5.9,0,10.8,4.9,10.8,10.8v123.4C988.7,151.9,983.8,156.8,977.9,156.8z"/>
	<g>
		<path class="st0" d="M639,57v-4.1h7.1V57c6.1,1.3,9.3,6,9.3,13.5v1.7h-8.2v-2.3c0-3.9-1.6-5.4-4.3-5.4c-2.8,0-4.3,1.5-4.3,5.4
			c0,11.3,16.9,11.9,16.9,27.6c0,7.5-3.2,12.3-9.4,13.5v4H639v-4c-6.2-1.3-9.4-6.1-9.4-13.5v-3.8h8.2v4.3c0,3.9,1.7,5.4,4.5,5.4
			c2.8,0,4.5-1.4,4.5-5.4c0-11.3-16.9-11.9-16.9-27.6C629.8,63,632.9,58.3,639,57z"/>
		<path class="st0" d="M684.2,68.7c0-5.5-1.9-7-5-7c-3.1,0-5,1.7-5,6v3.9h-9.1v-3.3c0-9.8,4.9-15.4,14.4-15.4
			c9.5,0,14.4,5.6,14.4,15.4v1.6c0,6.6-2.1,10.7-6.8,12.6c4.8,2.1,6.8,6.7,6.8,12.9v4.8c0,9.8-4.9,15.4-14.4,15.4
			c-9.5,0-14.4-5.6-14.4-15.4v-5.1h9.1v5.7c0,4.4,1.9,6,5,6c3.1,0,5-1.5,5-6.9v-4.8c0-5.7-1.9-7.8-6.3-7.8h-3.2v-8.8h3.8
			c3.6,0,5.8-1.6,5.8-6.5V68.7z"/>
		<path class="st0" d="M701.7,68.3c0-9.8,5.2-15.4,14.6-15.4c9.5,0,14.6,5.6,14.6,15.4v31.9c0,9.8-5.2,15.4-14.6,15.4
			c-9.5,0-14.6-5.6-14.6-15.4V68.3z M711.4,100.8c0,4.4,1.9,6,5,6s5-1.7,5-6V67.7c0-4.4-1.9-6-5-6s-5,1.7-5,6V100.8z"/>
		<path class="st0" d="M769.8,103.6l7.4-50h8.8l-9.5,61.3h-14.4l-9.5-61.3h9.7L769.8,103.6z"/>
		<path class="st0" d="M792.6,53.6h9.6v61.3h-9.6V53.6z"/>
		<path class="st0" d="M824.5,52.9c9.4,0,14.2,5.6,14.2,15.4v1.9h-9.1v-2.5c0-4.4-1.7-6-4.8-6c-3.1,0-4.8,1.7-4.8,6
			c0,12.6,18.8,15,18.8,32.5c0,9.8-4.9,15.4-14.4,15.4c-9.5,0-14.4-5.6-14.4-15.4v-3.8h9.1v4.4c0,4.4,1.9,6,5,6c3.1,0,5-1.6,5-6
			c0-12.6-18.8-15-18.8-32.5C810.3,58.5,815.1,52.9,824.5,52.9z"/>
		<path class="st0" d="M846.5,53.6h9.6v61.3h-9.6V53.6z"/>
		<path class="st0" d="M862.5,53.6h29.8v8.8h-10.1v52.6h-9.6V62.4h-10.1V53.6z"/>
		<path class="st0" d="M911.7,52.9c9.4,0,14.2,5.6,14.2,15.4v1.9h-9.1v-2.5c0-4.4-1.7-6-4.8-6c-3.1,0-4.8,1.7-4.8,6
			c0,12.6,18.8,15,18.8,32.5c0,9.8-4.9,15.4-14.4,15.4c-9.5,0-14.4-5.6-14.4-15.4v-3.8h9.1v4.4c0,4.4,1.9,6,5,6s5-1.6,5-6
			c0-12.6-18.8-15-18.8-32.5C897.5,58.5,902.3,52.9,911.7,52.9z"/>
	</g>
</g>
</svg>
